<svg width="84" height="124" viewBox="0 0 84 124" fill="none" xmlns="http://www.w3.org/2000/svg">
<path d="M2 72.08C20.6975 50.334 28.7352 38.763 41.0244 2C37.8772 33.8444 36.4665 45.2859 31.0971 67.7818C35.4168 45.1222 22.0257 19.3921 5.59435 40.365C2.789 43.9457 14.3235 37.2958 28.2999 41.388M66.2726 66.858C68.0005 55.542 68.4843 44.8661 66.7718 37.52C62.8838 42.8 55.2697 58.96 55.2697 68.56C54.5482 67.8859 53.0017 65.302 52.5157 64.182C51.8677 65.462 51.5437 66.102 49.7617 68.342C49.0401 67.6679 47.8177 65.302 47.3317 64.182C46.6836 65.462 46.3596 66.102 44.5776 68.342L41.6616 64.182L38.0976 68.342M66.2726 66.858C62.5557 91.2002 53.0823 118.505 47.3316 122C44.7633 113.985 50.6639 85.4447 66.2726 66.858ZM66.2726 66.858C75.2781 56.1343 80.866 53.04 82 52.56" stroke="black" stroke-width="3" stroke-linecap="round" stroke-linejoin="round"/>
</svg>
