<svg width="49" height="48" viewBox="0 0 49 48" fill="none" xmlns="http://www.w3.org/2000/svg">
<path d="M24.7712 4C22.1448 4 19.5441 4.51732 17.1176 5.52241C14.6911 6.5275 12.4863 8.00069 10.6291 9.85786C6.87838 13.6086 4.77124 18.6957 4.77124 24C4.77124 32.84 10.5112 40.34 18.4512 43C19.4512 43.16 19.7712 42.54 19.7712 42V38.62C14.2312 39.82 13.0512 35.94 13.0512 35.94C12.1312 33.62 10.8312 33 10.8312 33C9.01124 31.76 10.9712 31.8 10.9712 31.8C12.9712 31.94 14.0312 33.86 14.0312 33.86C15.7712 36.9 18.7112 36 19.8512 35.52C20.0312 34.22 20.5512 33.34 21.1112 32.84C16.6712 32.34 12.0112 30.62 12.0112 23C12.0112 20.78 12.7712 19 14.0712 17.58C13.8712 17.08 13.1712 15 14.2712 12.3C14.2712 12.3 15.9512 11.76 19.7712 14.34C21.3512 13.9 23.0712 13.68 24.7712 13.68C26.4712 13.68 28.1912 13.9 29.7712 14.34C33.5912 11.76 35.2712 12.3 35.2712 12.3C36.3712 15 35.6712 17.08 35.4712 17.58C36.7712 19 37.5312 20.78 37.5312 23C37.5312 30.64 32.8512 32.32 28.3912 32.82C29.1112 33.44 29.7712 34.66 29.7712 36.52V42C29.7712 42.54 30.0912 43.18 31.1112 43C39.0512 40.32 44.7712 32.84 44.7712 24C44.7712 21.3736 44.2539 18.7728 43.2488 16.3463C42.2437 13.9198 40.7705 11.715 38.9134 9.85786C37.0562 8.00069 34.8514 6.5275 32.4249 5.52241C29.9984 4.51732 27.3977 4 24.7712 4V4Z" fill="#BFBFBF"/>
</svg>
