<svg width="49" height="48" viewBox="0 0 49 48" fill="none" xmlns="http://www.w3.org/2000/svg">
<path d="M38.7712 6C39.8321 6 40.8495 6.42143 41.5997 7.17157C42.3498 7.92172 42.7712 8.93913 42.7712 10V38C42.7712 39.0609 42.3498 40.0783 41.5997 40.8284C40.8495 41.5786 39.8321 42 38.7712 42H10.7712C9.71037 42 8.69296 41.5786 7.94281 40.8284C7.19267 40.0783 6.77124 39.0609 6.77124 38V10C6.77124 8.93913 7.19267 7.92172 7.94281 7.17157C8.69296 6.42143 9.71037 6 10.7712 6H38.7712ZM37.7712 37V26.4C37.7712 24.6708 37.0843 23.0124 35.8616 21.7897C34.6388 20.5669 32.9805 19.88 31.2512 19.88C29.5512 19.88 27.5712 20.92 26.6112 22.48V20.26H21.0312V37H26.6112V27.14C26.6112 25.6 27.8512 24.34 29.3912 24.34C30.1338 24.34 30.846 24.635 31.3711 25.1601C31.8962 25.6852 32.1912 26.3974 32.1912 27.14V37H37.7712ZM14.5312 17.12C15.4224 17.12 16.277 16.766 16.9071 16.1359C17.5372 15.5058 17.8912 14.6511 17.8912 13.76C17.8912 11.9 16.3912 10.38 14.5312 10.38C13.6348 10.38 12.7751 10.7361 12.1412 11.37C11.5073 12.0039 11.1512 12.8636 11.1512 13.76C11.1512 15.62 12.6712 17.12 14.5312 17.12V17.12ZM17.3112 37V20.26H11.7712V37H17.3112V37Z" fill="#BFBFBF"/>
</svg>
